# xmcd
#
# Track frame offsets:
#        150
#        17377
#        36087
#        50342
#        70805
#        88055
#        104152
#        121732
#        136757
#        150772
#
# Disc length: 2251 seconds
#
# Revision: 0
# Processed by: cddbd v1.5.1PL0 Copyright (c) Steve Scherf et al.
# Submitted via: ExactAudioCopy v0.95b1
#
DISCID=7208c90a
DTITLE=Linda Di Franco - Rise Of The Heart
DYEAR=1986
DGENRE=Ballad
TTITLE0=T.V. Seane
TTITLE1=The Look Of Love
TTITLE2=Yankee
TTITLE3=Stay
TTITLE4=Dance It Up
TTITLE5=My Boss
TTITLE6=Bless My Soul
TTITLE7=Fran
TTITLE8=Blame It On Rio
TTITLE9=The Rise Of The Heart
EXTD=
EXTT0=
EXTT1=
EXTT2=
EXTT3=
EXTT4=
EXTT5=
EXTT6=
EXTT7=
EXTT8=
EXTT9=
PLAYORDER=
